<svg width="198" height="33" viewBox="0 0 198 33" fill="none" xmlns="http://www.w3.org/2000/svg">
  <path
    d="M3.6 24C2.992 24 2.52 23.832 2.184 23.496C1.864 23.16 1.704 22.696 1.704 22.104V8.928C1.704 8.304 1.864 7.832 2.184 7.512C2.504 7.192 2.968 7.032 3.576 7.032C4.168 7.032 4.624 7.192 4.944 7.512C5.264 7.832 5.424 8.304 5.424 8.928V20.856H11.856C12.368 20.856 12.76 20.992 13.032 21.264C13.32 21.536 13.464 21.92 13.464 22.416C13.464 22.928 13.32 23.32 13.032 23.592C12.76 23.864 12.368 24 11.856 24H3.6ZM16.9738 24.192C16.3818 24.192 15.9258 24.024 15.6058 23.688C15.3018 23.336 15.1498 22.848 15.1498 22.224V14.016C15.1498 13.376 15.3018 12.888 15.6058 12.552C15.9258 12.2 16.3818 12.024 16.9738 12.024C17.5498 12.024 17.9898 12.2 18.2938 12.552C18.6138 12.888 18.7738 13.376 18.7738 14.016V22.224C18.7738 22.848 18.6218 23.336 18.3178 23.688C18.0138 24.024 17.5658 24.192 16.9738 24.192ZM16.9738 10.056C16.3018 10.056 15.7818 9.904 15.4138 9.6C15.0618 9.28 14.8858 8.832 14.8858 8.256C14.8858 7.664 15.0618 7.216 15.4138 6.912C15.7818 6.592 16.3018 6.432 16.9738 6.432C17.6458 6.432 18.1578 6.592 18.5098 6.912C18.8618 7.216 19.0378 7.664 19.0378 8.256C19.0378 8.832 18.8618 9.28 18.5098 9.6C18.1578 9.904 17.6458 10.056 16.9738 10.056ZM27.2357 28.584C26.3717 28.584 25.5397 28.512 24.7397 28.368C23.9557 28.224 23.2597 28.008 22.6517 27.72C22.2837 27.56 22.0197 27.352 21.8597 27.096C21.7157 26.84 21.6517 26.568 21.6677 26.28C21.6997 25.992 21.7957 25.736 21.9557 25.512C22.1317 25.288 22.3477 25.128 22.6037 25.032C22.8597 24.952 23.1317 24.976 23.4197 25.104C24.1237 25.424 24.7717 25.632 25.3637 25.728C25.9717 25.824 26.4917 25.872 26.9237 25.872C27.9477 25.872 28.7157 25.64 29.2277 25.176C29.7397 24.712 29.9957 24 29.9957 23.04V21.216H30.2117C29.9717 21.952 29.4757 22.552 28.7237 23.016C27.9717 23.48 27.1397 23.712 26.2277 23.712C25.1717 23.712 24.2517 23.472 23.4677 22.992C22.6837 22.496 22.0757 21.808 21.6437 20.928C21.2117 20.032 20.9957 19 20.9957 17.832C20.9957 16.952 21.1157 16.152 21.3557 15.432C21.6117 14.712 21.9637 14.096 22.4117 13.584C22.8757 13.072 23.4277 12.68 24.0677 12.408C24.7237 12.12 25.4437 11.976 26.2277 11.976C27.1717 11.976 28.0037 12.208 28.7237 12.672C29.4597 13.12 29.9477 13.712 30.1877 14.448L29.9477 15.216V13.848C29.9477 13.256 30.0997 12.808 30.4037 12.504C30.7237 12.184 31.1717 12.024 31.7477 12.024C32.3237 12.024 32.7637 12.184 33.0677 12.504C33.3717 12.808 33.5237 13.256 33.5237 13.848V22.632C33.5237 24.6 32.9797 26.08 31.8917 27.072C30.8197 28.08 29.2677 28.584 27.2357 28.584ZM27.3077 21C27.8517 21 28.3157 20.872 28.6997 20.616C29.0997 20.36 29.4117 20 29.6357 19.536C29.8597 19.056 29.9717 18.488 29.9717 17.832C29.9717 16.84 29.7237 16.072 29.2277 15.528C28.7477 14.968 28.1077 14.688 27.3077 14.688C26.7637 14.688 26.2917 14.816 25.8917 15.072C25.4917 15.312 25.1797 15.672 24.9557 16.152C24.7477 16.616 24.6437 17.176 24.6437 17.832C24.6437 18.824 24.8837 19.6 25.3637 20.16C25.8437 20.72 26.4917 21 27.3077 21ZM38.1613 24.216C37.5693 24.216 37.1133 24.056 36.7933 23.736C36.4893 23.416 36.3373 22.96 36.3373 22.368V8.712C36.3373 8.104 36.4893 7.648 36.7933 7.344C37.1133 7.024 37.5693 6.864 38.1613 6.864C38.7373 6.864 39.1773 7.024 39.4813 7.344C39.8013 7.648 39.9613 8.104 39.9613 8.712V14.424H39.6253C39.9933 13.64 40.5373 13.04 41.2573 12.624C41.9933 12.192 42.8253 11.976 43.7533 11.976C44.6973 11.976 45.4733 12.16 46.0813 12.528C46.6893 12.88 47.1453 13.424 47.4493 14.16C47.7533 14.88 47.9053 15.8 47.9053 16.92V22.368C47.9053 22.96 47.7453 23.416 47.4253 23.736C47.1213 24.056 46.6733 24.216 46.0813 24.216C45.5053 24.216 45.0573 24.056 44.7373 23.736C44.4333 23.416 44.2813 22.96 44.2813 22.368V17.088C44.2813 16.272 44.1293 15.688 43.8253 15.336C43.5373 14.968 43.0893 14.784 42.4813 14.784C41.7133 14.784 41.0973 15.024 40.6333 15.504C40.1853 15.984 39.9613 16.624 39.9613 17.424V22.368C39.9613 23.6 39.3613 24.216 38.1613 24.216ZM56.3948 24.264C55.2908 24.264 54.3628 24.08 53.6108 23.712C52.8748 23.344 52.3228 22.808 51.9548 22.104C51.6028 21.4 51.4268 20.512 51.4268 19.44V14.928H50.4188C49.9708 14.928 49.6188 14.808 49.3628 14.568C49.1227 14.328 49.0027 14 49.0027 13.584C49.0027 13.136 49.1227 12.8 49.3628 12.576C49.6188 12.336 49.9708 12.216 50.4188 12.216H51.4268V10.392C51.4268 9.784 51.5868 9.328 51.9068 9.024C52.2268 8.704 52.6748 8.544 53.2508 8.544C53.8428 8.544 54.2908 8.704 54.5948 9.024C54.8988 9.328 55.0508 9.784 55.0508 10.392V12.216H57.3308C57.7788 12.216 58.1228 12.336 58.3628 12.576C58.6028 12.8 58.7228 13.136 58.7228 13.584C58.7228 14 58.6028 14.328 58.3628 14.568C58.1228 14.808 57.7788 14.928 57.3308 14.928H55.0508V19.296C55.0508 19.968 55.2028 20.472 55.5068 20.808C55.8268 21.144 56.3308 21.312 57.0188 21.312C57.2588 21.312 57.4828 21.288 57.6908 21.24C57.8988 21.192 58.0908 21.16 58.2668 21.144C58.4908 21.128 58.6748 21.2 58.8188 21.36C58.9628 21.504 59.0348 21.832 59.0348 22.344C59.0348 22.728 58.9708 23.064 58.8428 23.352C58.7148 23.64 58.4908 23.848 58.1708 23.976C57.9628 24.056 57.6748 24.12 57.3068 24.168C56.9548 24.232 56.6508 24.264 56.3948 24.264ZM62.1379 24.216C61.5459 24.216 61.0899 24.056 60.7699 23.736C60.4659 23.416 60.3139 22.96 60.3139 22.368V13.848C60.3139 13.256 60.4659 12.808 60.7699 12.504C61.0899 12.184 61.5299 12.024 62.0899 12.024C62.6659 12.024 63.1059 12.184 63.4099 12.504C63.7139 12.808 63.8659 13.256 63.8659 13.848V15.216L63.6019 14.424C63.9699 13.64 64.5139 13.04 65.2339 12.624C65.9699 12.192 66.8019 11.976 67.7299 11.976C68.6739 11.976 69.4499 12.16 70.0579 12.528C70.6659 12.88 71.1219 13.424 71.4259 14.16C71.7299 14.88 71.8819 15.8 71.8819 16.92V22.368C71.8819 22.96 71.7219 23.416 71.4019 23.736C71.0979 24.056 70.6499 24.216 70.0579 24.216C69.4819 24.216 69.0339 24.056 68.7139 23.736C68.4099 23.416 68.2579 22.96 68.2579 22.368V17.088C68.2579 16.272 68.1059 15.688 67.8019 15.336C67.5139 14.968 67.0659 14.784 66.4579 14.784C65.6899 14.784 65.0739 15.024 64.6099 15.504C64.1619 15.984 63.9379 16.624 63.9379 17.424V22.368C63.9379 23.6 63.3379 24.216 62.1379 24.216ZM76.4113 24.192C75.8193 24.192 75.3633 24.024 75.0433 23.688C74.7393 23.336 74.5873 22.848 74.5873 22.224V14.016C74.5873 13.376 74.7393 12.888 75.0433 12.552C75.3633 12.2 75.8193 12.024 76.4113 12.024C76.9873 12.024 77.4273 12.2 77.7313 12.552C78.0513 12.888 78.2113 13.376 78.2113 14.016V22.224C78.2113 22.848 78.0593 23.336 77.7553 23.688C77.4513 24.024 77.0033 24.192 76.4113 24.192ZM76.4113 10.056C75.7393 10.056 75.2193 9.904 74.8513 9.6C74.4993 9.28 74.3233 8.832 74.3233 8.256C74.3233 7.664 74.4993 7.216 74.8513 6.912C75.2193 6.592 75.7393 6.432 76.4113 6.432C77.0833 6.432 77.5953 6.592 77.9473 6.912C78.2993 7.216 78.4753 7.664 78.4753 8.256C78.4753 8.832 78.2993 9.28 77.9473 9.6C77.5953 9.904 77.0833 10.056 76.4113 10.056ZM82.8332 24.216C82.2412 24.216 81.7852 24.056 81.4652 23.736C81.1612 23.416 81.0092 22.96 81.0092 22.368V13.848C81.0092 13.256 81.1612 12.808 81.4652 12.504C81.7852 12.184 82.2252 12.024 82.7852 12.024C83.3612 12.024 83.8012 12.184 84.1052 12.504C84.4092 12.808 84.5612 13.256 84.5612 13.848V15.216L84.2972 14.424C84.6652 13.64 85.2092 13.04 85.9292 12.624C86.6652 12.192 87.4972 11.976 88.4252 11.976C89.3692 11.976 90.1452 12.16 90.7532 12.528C91.3612 12.88 91.8172 13.424 92.1212 14.16C92.4252 14.88 92.5772 15.8 92.5772 16.92V22.368C92.5772 22.96 92.4172 23.416 92.0972 23.736C91.7932 24.056 91.3452 24.216 90.7532 24.216C90.1772 24.216 89.7292 24.056 89.4092 23.736C89.1052 23.416 88.9532 22.96 88.9532 22.368V17.088C88.9532 16.272 88.8012 15.688 88.4972 15.336C88.2092 14.968 87.7612 14.784 87.1532 14.784C86.3852 14.784 85.7692 15.024 85.3052 15.504C84.8572 15.984 84.6332 16.624 84.6332 17.424V22.368C84.6332 23.6 84.0332 24.216 82.8332 24.216ZM100.947 28.584C100.083 28.584 99.2506 28.512 98.4506 28.368C97.6666 28.224 96.9706 28.008 96.3626 27.72C95.9946 27.56 95.7306 27.352 95.5706 27.096C95.4266 26.84 95.3626 26.568 95.3786 26.28C95.4106 25.992 95.5066 25.736 95.6666 25.512C95.8426 25.288 96.0586 25.128 96.3146 25.032C96.5706 24.952 96.8426 24.976 97.1306 25.104C97.8346 25.424 98.4826 25.632 99.0746 25.728C99.6826 25.824 100.203 25.872 100.635 25.872C101.659 25.872 102.427 25.64 102.939 25.176C103.451 24.712 103.707 24 103.707 23.04V21.216H103.923C103.683 21.952 103.187 22.552 102.435 23.016C101.683 23.48 100.851 23.712 99.9386 23.712C98.8826 23.712 97.9626 23.472 97.1786 22.992C96.3946 22.496 95.7866 21.808 95.3546 20.928C94.9226 20.032 94.7066 19 94.7066 17.832C94.7066 16.952 94.8266 16.152 95.0666 15.432C95.3226 14.712 95.6746 14.096 96.1226 13.584C96.5866 13.072 97.1386 12.68 97.7786 12.408C98.4346 12.12 99.1546 11.976 99.9386 11.976C100.883 11.976 101.715 12.208 102.435 12.672C103.171 13.12 103.659 13.712 103.899 14.448L103.659 15.216V13.848C103.659 13.256 103.811 12.808 104.115 12.504C104.435 12.184 104.883 12.024 105.459 12.024C106.035 12.024 106.475 12.184 106.779 12.504C107.083 12.808 107.235 13.256 107.235 13.848V22.632C107.235 24.6 106.691 26.08 105.603 27.072C104.531 28.08 102.979 28.584 100.947 28.584ZM101.019 21C101.563 21 102.027 20.872 102.411 20.616C102.811 20.36 103.123 20 103.347 19.536C103.571 19.056 103.683 18.488 103.683 17.832C103.683 16.84 103.435 16.072 102.939 15.528C102.459 14.968 101.819 14.688 101.019 14.688C100.475 14.688 100.003 14.816 99.6026 15.072C99.2026 15.312 98.8906 15.672 98.6666 16.152C98.4586 16.616 98.3546 17.176 98.3546 17.832C98.3546 18.824 98.5946 19.6 99.0746 20.16C99.5546 20.72 100.203 21 101.019 21ZM116.264 24.216C115.656 24.216 115.192 24.048 114.872 23.712C114.552 23.376 114.392 22.904 114.392 22.296V10.152H110.144C109.648 10.152 109.264 10.016 108.992 9.744C108.72 9.472 108.584 9.096 108.584 8.616C108.584 8.12 108.72 7.744 108.992 7.488C109.264 7.216 109.648 7.08 110.144 7.08H122.36C122.856 7.08 123.24 7.216 123.512 7.488C123.784 7.744 123.92 8.12 123.92 8.616C123.92 9.096 123.784 9.472 123.512 9.744C123.24 10.016 122.856 10.152 122.36 10.152H118.112V22.296C118.112 22.904 117.952 23.376 117.632 23.712C117.328 24.048 116.872 24.216 116.264 24.216ZM127.298 24.264C126.434 24.264 125.658 24.096 124.97 23.76C124.282 23.424 123.746 22.968 123.362 22.392C122.978 21.816 122.786 21.168 122.786 20.448C122.786 19.584 123.01 18.904 123.458 18.408C123.906 17.896 124.634 17.536 125.642 17.328C126.65 17.104 127.986 16.992 129.65 16.992H130.922V18.864H129.674C128.858 18.864 128.194 18.912 127.682 19.008C127.186 19.088 126.826 19.232 126.602 19.44C126.394 19.648 126.29 19.936 126.29 20.304C126.29 20.752 126.442 21.12 126.746 21.408C127.066 21.696 127.522 21.84 128.114 21.84C128.578 21.84 128.986 21.736 129.338 21.528C129.706 21.304 129.994 21.008 130.202 20.64C130.41 20.256 130.514 19.824 130.514 19.344V16.584C130.514 15.88 130.354 15.384 130.034 15.096C129.714 14.792 129.17 14.64 128.402 14.64C127.97 14.64 127.498 14.696 126.986 14.808C126.49 14.904 125.938 15.072 125.33 15.312C124.978 15.472 124.666 15.512 124.394 15.432C124.122 15.336 123.914 15.176 123.77 14.952C123.626 14.712 123.554 14.456 123.554 14.184C123.554 13.896 123.634 13.624 123.794 13.368C123.954 13.096 124.218 12.896 124.586 12.768C125.338 12.464 126.042 12.256 126.698 12.144C127.37 12.032 127.986 11.976 128.546 11.976C129.778 11.976 130.786 12.16 131.57 12.528C132.37 12.88 132.97 13.432 133.37 14.184C133.77 14.92 133.97 15.872 133.97 17.04V22.368C133.97 22.96 133.826 23.416 133.538 23.736C133.25 24.056 132.834 24.216 132.29 24.216C131.746 24.216 131.322 24.056 131.018 23.736C130.73 23.416 130.586 22.96 130.586 22.368V21.48L130.754 21.624C130.658 22.168 130.45 22.64 130.13 23.04C129.826 23.424 129.434 23.728 128.954 23.952C128.474 24.16 127.922 24.264 127.298 24.264ZM141.185 24.264C140.481 24.264 139.753 24.2 139.001 24.072C138.265 23.944 137.593 23.728 136.985 23.424C136.665 23.264 136.433 23.064 136.289 22.824C136.161 22.568 136.105 22.312 136.121 22.056C136.137 21.8 136.217 21.568 136.361 21.36C136.521 21.152 136.721 21.016 136.961 20.952C137.217 20.872 137.497 20.896 137.801 21.024C138.457 21.296 139.057 21.488 139.601 21.6C140.145 21.712 140.681 21.768 141.209 21.768C141.897 21.768 142.393 21.664 142.697 21.456C143.017 21.232 143.177 20.944 143.177 20.592C143.177 20.272 143.073 20.032 142.865 19.872C142.657 19.712 142.353 19.6 141.953 19.536L139.433 19.08C138.441 18.904 137.673 18.544 137.129 18C136.601 17.44 136.337 16.728 136.337 15.864C136.337 15.064 136.561 14.376 137.009 13.8C137.457 13.208 138.073 12.76 138.857 12.456C139.657 12.136 140.561 11.976 141.569 11.976C142.289 11.976 142.953 12.04 143.561 12.168C144.169 12.296 144.753 12.504 145.313 12.792C145.601 12.936 145.801 13.128 145.913 13.368C146.041 13.608 146.081 13.856 146.033 14.112C146.001 14.368 145.905 14.6 145.745 14.808C145.585 15.016 145.377 15.152 145.121 15.216C144.881 15.28 144.601 15.248 144.281 15.12C143.769 14.88 143.297 14.712 142.865 14.616C142.433 14.504 142.017 14.448 141.617 14.448C140.897 14.448 140.377 14.568 140.057 14.808C139.737 15.032 139.577 15.32 139.577 15.672C139.577 15.944 139.665 16.176 139.841 16.368C140.033 16.544 140.321 16.664 140.705 16.728L143.225 17.184C144.265 17.36 145.057 17.712 145.601 18.24C146.145 18.752 146.417 19.456 146.417 20.352C146.417 21.568 145.937 22.528 144.977 23.232C144.033 23.92 142.769 24.264 141.185 24.264ZM150.31 24.216C149.718 24.216 149.262 24.056 148.942 23.736C148.638 23.416 148.486 22.96 148.486 22.368V8.712C148.486 8.104 148.638 7.648 148.942 7.344C149.262 7.024 149.718 6.864 150.31 6.864C150.886 6.864 151.326 7.024 151.63 7.344C151.95 7.648 152.11 8.104 152.11 8.712V17.088H152.158L155.638 13.224C155.99 12.824 156.31 12.528 156.598 12.336C156.902 12.128 157.302 12.024 157.798 12.024C158.294 12.024 158.67 12.152 158.926 12.408C159.198 12.664 159.334 12.976 159.334 13.344C159.35 13.696 159.198 14.056 158.878 14.424L155.206 18.528V17.16L159.286 21.864C159.59 22.232 159.718 22.6 159.67 22.968C159.638 23.336 159.478 23.64 159.19 23.88C158.902 24.104 158.534 24.216 158.086 24.216C157.542 24.216 157.102 24.112 156.766 23.904C156.446 23.696 156.118 23.376 155.782 22.944L152.158 18.912H152.11V22.368C152.11 23.6 151.51 24.216 150.31 24.216ZM166.217 24.264C165.513 24.264 164.785 24.2 164.033 24.072C163.297 23.944 162.625 23.728 162.017 23.424C161.697 23.264 161.465 23.064 161.321 22.824C161.193 22.568 161.137 22.312 161.153 22.056C161.169 21.8 161.249 21.568 161.393 21.36C161.553 21.152 161.753 21.016 161.993 20.952C162.249 20.872 162.529 20.896 162.833 21.024C163.489 21.296 164.089 21.488 164.633 21.6C165.177 21.712 165.713 21.768 166.241 21.768C166.929 21.768 167.425 21.664 167.729 21.456C168.049 21.232 168.209 20.944 168.209 20.592C168.209 20.272 168.105 20.032 167.897 19.872C167.689 19.712 167.385 19.6 166.985 19.536L164.465 19.08C163.473 18.904 162.705 18.544 162.161 18C161.633 17.44 161.369 16.728 161.369 15.864C161.369 15.064 161.593 14.376 162.041 13.8C162.489 13.208 163.105 12.76 163.889 12.456C164.689 12.136 165.593 11.976 166.601 11.976C167.321 11.976 167.985 12.04 168.593 12.168C169.201 12.296 169.785 12.504 170.345 12.792C170.633 12.936 170.833 13.128 170.945 13.368C171.073 13.608 171.113 13.856 171.065 14.112C171.033 14.368 170.937 14.6 170.777 14.808C170.617 15.016 170.409 15.152 170.153 15.216C169.913 15.28 169.633 15.248 169.313 15.12C168.801 14.88 168.329 14.712 167.897 14.616C167.465 14.504 167.049 14.448 166.648 14.448C165.929 14.448 165.409 14.568 165.089 14.808C164.769 15.032 164.609 15.32 164.609 15.672C164.609 15.944 164.697 16.176 164.873 16.368C165.065 16.544 165.353 16.664 165.737 16.728L168.257 17.184C169.297 17.36 170.089 17.712 170.633 18.24C171.177 18.752 171.449 19.456 171.449 20.352C171.449 21.568 170.969 22.528 170.009 23.232C169.065 23.92 167.801 24.264 166.217 24.264Z"
    fill="#222222" />
  <path
    d="M197.97 16.0675C197.923 15.8435 197.841 15.6351 197.729 15.456C197.617 15.2768 197.478 15.1309 197.32 15.0278L193.086 12.2552L194.223 1.87472C194.26 1.51497 194.207 1.14897 194.071 0.833444C193.935 0.51792 193.724 0.270487 193.47 0.129488C193.217 -0.0115109 192.936 -0.0382025 192.67 0.0535489C192.404 0.1453 192.168 0.350372 192 0.636985L183.256 15.4898C183.14 15.6915 183.06 15.9259 183.023 16.1749C182.986 16.424 182.993 16.6808 183.044 16.9256C183.094 17.1728 183.186 17.4013 183.314 17.5932C183.442 17.7851 183.602 17.9351 183.781 18.0313L189.114 20.8534L187.978 31.1184C187.939 31.4868 187.996 31.8617 188.139 32.1822C188.281 32.5027 188.502 32.7501 188.765 32.8842C188.911 32.9644 189.068 33.0037 189.227 32.9997C189.432 32.9983 189.635 32.9298 189.816 32.8002C189.996 32.6707 190.15 32.4841 190.263 32.2571L197.758 17.4042C197.863 17.2143 197.937 16.9968 197.973 16.7662C198.01 16.5357 198.009 16.2974 197.97 16.0675Z"
    fill="#303E87" />
</svg>